<?xml version="1.0" encoding="UTF-8" standalone="no"?>
<svg
   xmlns:dc="http://purl.org/dc/elements/1.1/"
   xmlns:cc="http://creativecommons.org/ns#"
   xmlns:rdf="http://www.w3.org/1999/02/22-rdf-syntax-ns#"
   xmlns:svg="http://www.w3.org/2000/svg"
   xmlns="http://www.w3.org/2000/svg"
   viewBox="0 0 561.76251 123.65"
   height="123.65"
   width="561.76251"
   xml:space="preserve"
   version="1.1"
   id="svg2"><metadata
     id="metadata8"><rdf:RDF><cc:Work
         rdf:about=""><dc:format>image/svg+xml</dc:format><dc:type
           rdf:resource="http://purl.org/dc/dcmitype/StillImage" /></cc:Work></rdf:RDF></metadata><defs
     id="defs6" /><g
     transform="matrix(1.25,0,0,-1.25,0,123.65)"
     id="g10"><g
       transform="scale(0.1,0.1)"
       id="g12"><path
         id="path14"
         style="fill:#231f20;fill-opacity:1;fill-rule:evenodd;stroke:none"
         d="m 3532.78,698.906 267.01,0 c 80.19,0 141.17,-7.453 175.46,-26.601 34.45,-19.063 49.67,-53.379 49.67,-99.16 l 0,-221.258 -141.24,0 0,209.89 c 0,26.7 -7.61,41.953 -19.07,49.532 -11.41,7.617 -38.02,11.406 -76.22,11.406 l -114.44,0 0,-270.828 -141.17,0 0,347.019" /><path
         id="path16"
         style="fill:#231f20;fill-opacity:1;fill-rule:evenodd;stroke:none"
         d="m 1354.83,351.887 148.75,0 0,476.836 -148.75,0 0,-476.836 z" /><path
         id="path18"
         style="fill:#231f20;fill-opacity:1;fill-rule:evenodd;stroke:none"
         d="m 874.309,550.254 0,83.906 366.081,0 0,-282.273 -331.82,0 c -61.066,0 -110.59,3.777 -141.172,11.472 -34.312,3.829 -64.808,15.301 -95.23,30.528 -38.168,19.121 -64.895,45.742 -83.961,76.297 -19.16,30.48 -26.742,68.586 -26.742,110.5 0,83.996 26.742,144.961 84.043,186.953 57.082,38.172 144.859,61.086 263.062,61.086 l 331.82,0 0,-83.938 -331.82,0 c -61.066,0 -106.824,-11.394 -133.425,-38.105 -26.801,-26.778 -42.059,-64.856 -42.059,-122.09 0,-49.551 15.258,-87.774 42.059,-110.664 26.601,-22.891 72.359,-34.297 133.425,-34.297 l 175.53,0 0,110.625 -209.791,0" /><path
         id="path20"
         style="fill:#b5dc17;fill-opacity:1;fill-rule:evenodd;stroke:none"
         d="m 1877.37,348.098 c -87.66,0 -160.18,15.261 -209.77,45.789 -53.37,34.336 -80.07,76.297 -80.07,133.437 0,53.36 26.7,99.238 80.07,129.68 49.59,34.449 122.11,49.676 209.77,49.676 7.74,0 15.32,-0.11 22.77,-0.371 76.94,-2.469 138,-17.891 183.26,-49.305 53.41,-30.442 80.07,-76.32 80.07,-129.68 0,-57.14 -26.66,-99.101 -76.29,-133.437 -53.39,-30.528 -122.06,-45.789 -209.81,-45.789 m 0,72.437 c 42.04,0 76.38,11.516 99.28,26.738 22.89,19.192 38.05,45.832 38.05,80.051 0,30.586 -15.16,57.266 -38.05,76.406 -22.9,18.985 -57.24,26.622 -99.28,26.622 -45.7,0 -80.03,-7.637 -102.92,-26.622 -22.87,-19.14 -34.29,-45.82 -34.29,-76.406 0,-34.219 11.42,-60.859 34.29,-80.051 22.89,-15.222 57.22,-26.738 102.92,-26.738" /><path
         id="path22"
         style="fill:#231f20;fill-opacity:1;fill-rule:evenodd;stroke:none"
         d="m 2518.2,351.887 -267.01,0 0,476.836 144.9,0 0,-129.817 122.11,0 c 53.41,0 95.35,-3.73 129.66,-11.34 34.44,-7.664 61.04,-22.886 83.95,-41.98 19.1,-15.234 34.35,-30.441 45.69,-49.668 7.68,-18.965 15.4,-41.875 15.4,-64.688 0,-57.304 -26.74,-99.179 -72.48,-129.714 -45.83,-34.328 -110.68,-49.629 -194.54,-49.629 l -7.68,0 z m 0,76.336 c 41.87,0 72.52,7.597 87.69,22.812 23.02,11.504 34.4,38.203 34.4,72.5 0,38.242 -11.38,61.055 -34.4,80.195 -19.04,11.415 -50.17,21.875 -88.33,21.875 -7.95,0 -17.91,0.957 -37.52,0.957 l -83.95,0 0,-198.339 122.11,0" /><path
         id="path24"
         style="fill:#231f20;fill-opacity:1;fill-rule:evenodd;stroke:none"
         d="m 3132.28,424.348 125.88,0 0,68.757 -167.83,0 c -34.27,0 -56.56,1.368 -70.38,-6.281 -13.72,-7.605 -17.32,-16.64 -17.32,-31.961 0,-11.433 4.08,-18.664 15.2,-26.64 6.15,-4.407 30.55,-3.875 61.08,-3.875 l 53.37,0 z m 0,-72.461 -110.69,0 c -53.37,0 -95.25,7.625 -125.77,26.773 -26.7,18.945 -41.9,41.875 -41.9,72.375 0,42.07 15.2,68.762 49.5,87.735 34.38,15.273 87.73,26.765 167.92,26.765 l 186.82,0 0,7.61 c 0,19.089 -11.44,34.355 -26.72,42 -19.02,7.57 -53.39,15.207 -99.16,15.207 l -244.09,0 0,68.554 293.79,0 c 76.18,0 129.59,-7.453 167.72,-30.449 38.18,-22.871 57.22,-53.312 57.22,-99.133 l 0,-217.437 -274.64,0" /><path
         id="path26"
         style="fill:#b5dc17;fill-opacity:1;fill-rule:evenodd;stroke:none"
         d="M 42.7148,569.324 C 80.8672,535.039 237.266,397.605 237.266,397.605 c 0,0 -180.9691,-143.835 -196.2894,-155.3 C 16.1953,222.48 -12.2773,250.352 8.40625,275.723 102.328,353.809 76.918,490.078 5.67969,545.547 -12.9258,565.664 18.0781,597.258 42.7148,569.324" /><path
         id="path28"
         style="fill:#b5dc17;fill-opacity:1;fill-rule:evenodd;stroke:none"
         d="M 42.7148,978.133 C 80.8672,943.848 237.266,806.418 237.266,806.418 c 0,0 -180.9691,-143.852 -196.2894,-155.305 C 16.1953,631.301 -12.2773,659.199 8.40625,684.531 102.328,762.637 76.918,898.895 5.67969,954.336 -12.9258,974.473 18.0781,1006.07 42.7148,978.133" /><path
         id="path30"
         style="fill:#b5dc17;fill-opacity:1;fill-rule:evenodd;stroke:none"
         d="M 288.008,763.828 C 326.156,729.57 482.559,592.09 482.559,592.09 c 0,0 -180.954,-143.848 -196.293,-155.274 -24.778,-19.824 -53.27,8.028 -32.532,33.418 93.864,78.067 68.461,214.336 -2.765,269.754 -18.582,20.157 12.39,51.75 37.039,23.84" /><path
         id="path32"
         style="fill:#231f20;fill-opacity:1;fill-rule:evenodd;stroke:none"
         d="m 4093.53,698.906 103.03,0 0,129.817 141.07,0 0,-129.817 152.55,0 0,-68.554 -152.55,0 0,-141.114 c 0,-22.773 7.61,-41.965 22.83,-53.418 11.54,-7.597 34.45,-15.285 68.7,-15.285 l 61.02,0 0,-68.648 -129.72,0 c -53.41,0 -95.29,11.472 -121.99,30.457 -30.48,15.261 -41.91,45.879 -41.91,80.195 l 0,167.813 -103.03,0 0,68.554" /><path
         id="path34"
         style="fill:#231f20;fill-opacity:1;fill-rule:nonzero;stroke:none"
         d="m 2268.48,185.359 17.09,-64.421 c 3.41,-14.18 6.83,-27.5982 9.2,-40.7427 l 0.78,0 c 2.89,12.8711 7.11,26.5627 11.31,40.4887 l 20.78,64.675 19.45,0 19.71,-63.621 c 4.74,-14.98 8.42,-28.6716 11.31,-41.5427 l 0.79,0 c 2.1,12.8711 5.52,26.2887 9.73,41.2697 l 18.14,63.894 22.88,0 -41.02,-127.2535 -21.03,0 -19.46,60.7425 c -4.47,14.453 -8.14,27.07 -11.31,42.058 l -0.52,0 c -3.16,-15.242 -7.11,-28.66 -11.56,-42.332 l -20.51,-60.4685 -21.04,0 -38.38,127.2535 23.66,0" /><path
         id="path36"
         style="fill:#231f20;fill-opacity:1;fill-rule:nonzero;stroke:none"
         d="m 2612.38,134.355 c 0.25,14.454 -6.06,37.598 -31.82,37.598 -23.67,0 -33.65,-21.562 -35.51,-37.598 l 67.33,0 z m -67.57,-16.562 c 0.52,-31.2891 20.23,-44.1797 43.38,-44.1797 16.55,0 26.81,2.9101 35.23,6.3281 l 4.19,-16.3086 c -8.13,-3.6836 -22.34,-8.1445 -42.59,-8.1445 -38.9,0 -62.56,26.0156 -62.56,64.1527 0,38.64 22.87,68.875 59.94,68.875 41.54,0 52.32,-36.551 52.32,-59.954 0,-4.734 -0.26,-8.406 -0.79,-11.042 l -89.12,0.273" /><path
         id="path38"
         style="fill:#231f20;fill-opacity:1;fill-rule:nonzero;stroke:none"
         d="m 2943.91,123.047 c -25.25,0.515 -53.9,-3.945 -53.9,-28.6525 0,-15.2539 9.99,-22.082 21.56,-22.082 16.82,0 27.6,10.5195 31.29,21.2813 0.79,2.3828 1.05,5 1.05,7.3632 l 0,22.09 z m 22.61,-34.4454 c 0,-11.043 0.53,-21.8243 1.84,-30.4961 l -20.77,0 -2.12,16.0351 -0.77,0 c -6.84,-9.9804 -20.77,-18.9258 -38.9,-18.9258 -25.78,0 -38.94,18.1446 -38.94,36.5508 0,30.7544 27.35,47.5824 76.52,47.3284 l 0,2.625 c 0,10.508 -2.89,29.699 -28.92,29.441 -12.09,0 -24.45,-3.418 -33.39,-9.461 l -5.26,15.508 c 10.53,6.57 26.04,11.047 42.08,11.047 39.18,0 48.63,-26.555 48.63,-52.063 l 0,-47.5894" /><path
         id="path40"
         style="fill:#231f20;fill-opacity:1;fill-rule:nonzero;stroke:none"
         d="m 3082.71,145.664 c 0,14.981 -0.24,27.871 -1.04,39.695 l 20.25,0 1.04,-24.976 0.79,0 c 5.8,17.097 19.98,27.871 35.5,27.871 2.36,0 4.2,-0.266 6.3,-0.793 l 0,-21.563 c -2.63,0.274 -4.99,0.528 -8.13,0.528 -16.31,0 -27.87,-12.344 -31.04,-29.446 -0.52,-3.418 -0.78,-7.097 -0.78,-11.042 l 0,-67.8325 -23.13,0 0.24,87.5585" /><path
         id="path42"
         style="fill:#231f20;fill-opacity:1;fill-rule:nonzero;stroke:none"
         d="m 3323.3,134.355 c 0.25,14.454 -6.06,37.598 -31.82,37.598 -23.67,0 -33.65,-21.562 -35.5,-37.598 l 67.32,0 z m -67.58,-16.562 c 0.53,-31.2891 20.25,-44.1797 43.38,-44.1797 16.57,0 26.83,2.9101 35.23,6.3281 l 4.21,-16.3086 c -8.15,-3.6836 -22.35,-8.1445 -42.59,-8.1445 -38.9,0 -62.58,26.0156 -62.58,64.1527 0,38.64 22.88,68.875 59.95,68.875 41.54,0 52.31,-36.551 52.31,-59.954 0,-4.734 -0.24,-8.406 -0.77,-11.042 l -89.14,0.273" /><path
         id="path44"
         style="fill:#231f20;fill-opacity:1;fill-rule:nonzero;stroke:none"
         d="m 3588.05,145.664 c 0,14.981 -0.25,27.871 -1.05,39.695 l 20.25,0 1.06,-24.976 0.77,0 c 5.79,17.097 19.98,27.871 35.5,27.871 2.36,0 4.2,-0.266 6.3,-0.793 l 0,-21.563 c -2.62,0.274 -5,0.528 -8.14,0.528 -16.31,0 -27.87,-12.344 -31.02,-29.446 -0.53,-3.418 -0.8,-7.097 -0.8,-11.042 l 0,-67.8325 -23.12,0 0.25,87.5585" /><path
         id="path46"
         style="fill:#231f20;fill-opacity:1;fill-rule:nonzero;stroke:none"
         d="m 3828.62,134.355 c 0.25,14.454 -6.06,37.598 -31.81,37.598 -23.67,0 -33.67,-21.562 -35.51,-37.598 l 67.32,0 z m -67.57,-16.562 c 0.53,-31.2891 20.24,-44.1797 43.38,-44.1797 16.55,0 26.82,2.9101 35.23,6.3281 l 4.2,-16.3086 c -8.14,-3.6836 -22.35,-8.1445 -42.6,-8.1445 -38.9,0 -62.57,26.0156 -62.57,64.1527 0,38.64 22.89,68.875 59.95,68.875 41.55,0 52.32,-36.551 52.32,-59.954 0,-4.734 -0.26,-8.406 -0.79,-11.042 l -89.12,0.273" /><path
         id="path48"
         style="fill:#231f20;fill-opacity:1;fill-rule:nonzero;stroke:none"
         d="m 4025.53,123.047 c -25.23,0.515 -53.88,-3.945 -53.88,-28.6525 0,-15.2539 9.99,-22.082 21.55,-22.082 16.82,0 27.62,10.5195 31.29,21.2813 0.79,2.3828 1.04,5 1.04,7.3632 l 0,22.09 z m 22.63,-34.4454 c 0,-11.043 0.52,-21.8243 1.83,-30.4961 l -20.77,0 -2.11,16.0351 -0.78,0 c -6.83,-9.9804 -20.78,-18.9258 -38.91,-18.9258 -25.76,0 -38.92,18.1446 -38.92,36.5508 0,30.7544 27.34,47.5824 76.5,47.3284 l 0,2.625 c 0,10.508 -2.89,29.699 -28.91,29.441 -12.09,0 -24.44,-3.418 -33.39,-9.461 l -5.25,15.508 c 10.51,6.57 26.02,11.047 42.06,11.047 39.18,0 48.65,-26.555 48.65,-52.063 l 0,-47.5894" /><path
         id="path50"
         style="fill:#231f20;fill-opacity:1;fill-rule:nonzero;stroke:none"
         d="m 4250.86,133.562 c 0,3.157 -0.27,6.836 -1.05,9.993 -3.42,14.472 -16.05,26.562 -33.39,26.562 -23.92,0 -38.13,-21.035 -38.13,-48.906 0,-26.0352 12.89,-47.3243 37.59,-47.3243 15.53,0 29.72,10.5156 33.93,27.5973 0.78,3.157 1.05,6.321 1.05,10 l 0,22.078 z m 23.14,111.223 0,-153.8084 c 0,-11.3086 0.26,-24.1993 1.04,-32.8711 l -20.76,0 -1.06,22.0898 -0.53,0 c -7.09,-14.1992 -22.33,-24.9805 -43.11,-24.9805 -30.77,0 -54.69,26.0235 -54.69,64.6762 -0.25,42.609 26.31,68.363 57.07,68.363 19.71,0 32.86,-9.211 38.38,-19.192 l 0.52,0 0,75.723 23.14,0" /><path
         id="path52"
         style="fill:#231f20;fill-opacity:1;fill-rule:nonzero;stroke:none"
         d="m 4399.66,185.359 27.62,-75.183 c 3.14,-8.418 6.31,-18.4104 8.42,-26.0354 l 0.53,0 c 2.36,7.625 4.98,17.3434 8.14,26.5624 l 25.23,74.656 24.46,0 -34.71,-90.7106 C 4442.79,51.0156 4431.48,28.6602 4415.71,14.7266 4404.14,5 4393.1,1.05469 4387.32,0 l -5.79,19.4531 c 5.79,1.5938 13.41,5.2735 20.25,11.3086 6.3,5 13.93,13.9453 19.46,25.7695 1.04,2.375 1.82,3.9454 1.82,5.5196 0,1.3164 -0.53,3.1445 -1.82,5.793 l -46.81,117.5152 25.23,0" /></g></g></svg>