<?xml version="1.0" encoding="UTF-8" standalone="no"?>
<svg
   xmlns:dc="http://purl.org/dc/elements/1.1/"
   xmlns:cc="http://creativecommons.org/ns#"
   xmlns:rdf="http://www.w3.org/1999/02/22-rdf-syntax-ns#"
   xmlns:svg="http://www.w3.org/2000/svg"
   xmlns="http://www.w3.org/2000/svg"
   viewBox="0 0 615.47498 180.95"
   height="180.95"
   width="615.47498"
   xml:space="preserve"
   version="1.1"
   id="svg2"><metadata
     id="metadata8"><rdf:RDF><cc:Work
         rdf:about=""><dc:format>image/svg+xml</dc:format><dc:type
           rdf:resource="http://purl.org/dc/dcmitype/StillImage" /></cc:Work></rdf:RDF></metadata><defs
     id="defs6"><clipPath
       id="clipPath18"
       clipPathUnits="userSpaceOnUse"><path
         id="path20"
         d="M 0,1447.62 0,0 l 4923.81,0 0,1447.62" /></clipPath></defs><g
     transform="matrix(1.25,0,0,-1.25,0,180.95)"
     id="g10"><g
       transform="scale(0.1,0.1)"
       id="g12"><g
         id="g14"><g
           clip-path="url(#clipPath18)"
           id="g16"><path
             id="path22"
             style="fill:#231f20;fill-opacity:1;fill-rule:nonzero;stroke:none"
             d="m 0,0 4923.81,0 0,1447.62 L 0,1447.62 0,0 Z" /><path
             id="path24"
             style="fill:#ffffff;fill-opacity:1;fill-rule:evenodd;stroke:none"
             d="m 3773.1,873.168 267.01,0 c 80.19,0 141.17,-7.453 175.46,-26.602 34.45,-19.062 49.67,-53.378 49.67,-99.16 l 0,-221.261 -141.24,0 0,209.894 c 0,26.699 -7.61,41.953 -19.06,49.531 -11.42,7.618 -38.03,11.407 -76.22,11.407 l -114.45,0 0,-270.832 -141.17,0 0,347.023" /><path
             id="path26"
             style="fill:#ffffff;fill-opacity:1;fill-rule:evenodd;stroke:none"
             d="m 1595.15,526.145 148.75,0 0,476.836 -148.75,0 0,-476.836 z" /><path
             id="path28"
             style="fill:#ffffff;fill-opacity:1;fill-rule:evenodd;stroke:none"
             d="m 1114.63,724.516 0,83.906 366.08,0 0,-282.277 -331.82,0 c -61.06,0 -110.59,3.781 -141.17,11.476 -34.314,3.828 -64.81,15.301 -95.232,30.527 -38.168,19.122 -64.89,45.743 -83.957,76.297 -19.16,30.481 -26.746,68.586 -26.746,110.5 0,83.993 26.746,144.961 84.043,186.953 57.082,38.172 144.862,61.082 263.062,61.082 l 331.82,0 0,-83.933 -331.82,0 c -61.06,0 -106.82,-11.399 -133.42,-38.106 -26.802,-26.777 -42.064,-64.855 -42.064,-122.089 0,-49.551 15.262,-87.774 42.064,-110.664 26.6,-22.891 72.36,-34.297 133.42,-34.297 l 175.53,0 0,110.625 -209.79,0" /><path
             id="path30"
             style="fill:#b5dc17;fill-opacity:1;fill-rule:evenodd;stroke:none"
             d="m 2117.69,522.355 c -87.66,0 -160.18,15.266 -209.77,45.793 -53.37,34.336 -80.07,76.297 -80.07,133.438 0,53.359 26.7,99.238 80.07,129.676 49.59,34.453 122.11,49.679 209.77,49.679 7.74,0 15.32,-0.109 22.77,-0.371 76.94,-2.472 138,-17.89 183.26,-49.308 53.41,-30.438 80.07,-76.317 80.07,-129.676 0,-57.141 -26.66,-99.102 -76.29,-133.438 -53.39,-30.527 -122.06,-45.793 -209.81,-45.793 m 0,72.442 c 42.04,0 76.39,11.515 99.28,26.738 22.89,19.192 38.05,45.832 38.05,80.051 0,30.586 -15.16,57.266 -38.05,76.406 -22.89,18.985 -57.24,26.621 -99.28,26.621 -45.7,0 -80.03,-7.636 -102.92,-26.621 -22.87,-19.14 -34.29,-45.82 -34.29,-76.406 0,-34.219 11.42,-60.859 34.29,-80.051 22.89,-15.223 57.22,-26.738 102.92,-26.738" /><path
             id="path32"
             style="fill:#ffffff;fill-opacity:1;fill-rule:evenodd;stroke:none"
             d="m 2758.52,526.145 -267.01,0 0,476.835 144.9,0 0,-129.812 122.11,0 c 53.41,0 95.35,-3.73 129.66,-11.34 34.44,-7.664 61.04,-22.89 83.95,-41.98 19.11,-15.235 34.35,-30.442 45.69,-49.668 7.68,-18.965 15.4,-41.875 15.4,-64.688 0,-57.304 -26.74,-99.18 -72.48,-129.719 -45.82,-34.324 -110.68,-49.628 -194.53,-49.628 l -7.69,0 z m 0,76.339 c 41.88,0 72.52,7.598 87.7,22.813 23.01,11.504 34.39,38.203 34.39,72.5 0,38.242 -11.38,61.055 -34.39,80.195 -19.05,11.414 -50.18,21.875 -88.33,21.875 -7.95,0 -17.91,0.957 -37.52,0.957 l -83.96,0 0,-198.34 122.11,0" /><path
             id="path34"
             style="fill:#ffffff;fill-opacity:1;fill-rule:evenodd;stroke:none"
             d="m 3372.6,598.605 125.88,0 0,68.762 -167.83,0 c -34.27,0 -56.55,1.367 -70.38,-6.281 -13.72,-7.606 -17.32,-16.641 -17.32,-31.961 0,-11.437 4.09,-18.664 15.2,-26.641 6.15,-4.406 30.56,-3.879 61.08,-3.879 l 53.37,0 z m 0,-72.46 -110.69,0 c -53.37,0 -95.24,7.628 -125.77,26.777 -26.7,18.945 -41.9,41.875 -41.9,72.375 0,42.07 15.2,68.758 49.51,87.734 34.37,15.274 87.72,26.766 167.92,26.766 l 186.81,0 0,7.609 c 0,19.09 -11.43,34.356 -26.72,42 -19.02,7.571 -53.39,15.207 -99.16,15.207 l -244.09,0 0,68.555 293.79,0 c 76.18,0 129.59,-7.453 167.72,-30.449 38.18,-22.871 57.22,-53.313 57.22,-99.133 l 0,-217.441 -274.64,0" /><path
             id="path36"
             style="fill:#b5dc17;fill-opacity:1;fill-rule:evenodd;stroke:none"
             d="M 283.035,743.586 C 321.191,709.301 477.59,571.867 477.59,571.867 c 0,0 -180.969,-143.836 -196.289,-155.297 -24.781,-19.832 -53.254,8.039 -32.571,33.414 93.922,78.086 68.512,214.356 -2.73,269.825 -18.602,20.117 12.398,51.707 37.035,23.777" /><path
             id="path38"
             style="fill:#b5dc17;fill-opacity:1;fill-rule:evenodd;stroke:none"
             d="m 283.035,1152.39 c 38.156,-34.28 194.555,-171.714 194.555,-171.714 0,0 -180.969,-143.848 -196.289,-155.301 -24.781,-19.816 -53.254,8.086 -32.571,33.418 93.922,78.105 68.512,214.367 -2.73,269.807 -18.602,20.13 12.398,51.74 37.035,23.79" /><path
             id="path40"
             style="fill:#b5dc17;fill-opacity:1;fill-rule:evenodd;stroke:none"
             d="m 528.328,938.09 c 38.152,-34.258 194.555,-171.738 194.555,-171.738 0,0 -180.953,-143.848 -196.297,-155.274 -24.774,-19.824 -53.266,8.027 -32.527,33.418 93.863,78.066 68.461,214.336 -2.77,269.754 -18.578,20.156 12.395,51.75 37.039,23.84" /><path
             id="path42"
             style="fill:#ffffff;fill-opacity:1;fill-rule:evenodd;stroke:none"
             d="m 4333.85,873.168 103.03,0 0,129.812 141.07,0 0,-129.812 152.55,0 0,-68.555 -152.55,0 0,-141.113 c 0,-22.773 7.61,-41.965 22.84,-53.418 11.53,-7.598 34.44,-15.285 68.69,-15.285 l 61.02,0 0,-68.652 -129.71,0 c -53.42,0 -95.3,11.476 -122,30.46 -30.47,15.262 -41.91,45.879 -41.91,80.196 l 0,167.812 -103.03,0 0,68.555" /><path
             id="path44"
             style="fill:#ffffff;fill-opacity:1;fill-rule:nonzero;stroke:none"
             d="m 2508.8,359.621 17.09,-64.422 c 3.42,-14.179 6.83,-27.597 9.2,-40.738 l 0.78,0 c 2.89,12.867 7.11,26.559 11.31,40.48 l 20.78,64.68 19.45,0 19.71,-63.621 c 4.75,-14.98 8.42,-28.672 11.31,-41.539 l 0.79,0 c 2.1,12.867 5.52,26.277 9.73,41.269 l 18.14,63.891 22.89,0 -41.03,-127.25 -21.03,0 -19.45,60.738 c -4.48,14.45 -8.15,27.071 -11.32,42.059 l -0.52,0 c -3.16,-15.246 -7.1,-28.656 -11.56,-42.34 l -20.51,-60.457 -21.03,0 -38.39,127.25 23.66,0" /><path
             id="path46"
             style="fill:#ffffff;fill-opacity:1;fill-rule:nonzero;stroke:none"
             d="m 2852.7,308.621 c 0.25,14.449 -6.05,37.59 -31.82,37.59 -23.67,0 -33.65,-21.563 -35.5,-37.59 l 67.32,0 z m -67.57,-16.57 c 0.52,-31.289 20.24,-44.18 43.38,-44.18 16.55,0 26.82,2.91 35.24,6.328 l 4.18,-16.308 c -8.13,-3.68 -22.34,-8.141 -42.58,-8.141 -38.91,0 -62.57,26.012 -62.57,64.148 0,38.641 22.87,68.883 59.94,68.883 41.54,0 52.32,-36.562 52.32,-59.953 0,-4.738 -0.26,-8.406 -0.79,-11.047 l -89.12,0.27" /><path
             id="path48"
             style="fill:#ffffff;fill-opacity:1;fill-rule:nonzero;stroke:none"
             d="m 3184.23,297.309 c -25.25,0.519 -53.89,-3.95 -53.89,-28.649 0,-15.262 9.99,-22.082 21.55,-22.082 16.83,0 27.61,10.512 31.29,21.274 0.79,2.386 1.05,5 1.05,7.367 l 0,22.09 z m 22.61,-34.45 c 0,-11.039 0.53,-21.82 1.85,-30.488 l -20.77,0 -2.12,16.027 -0.78,0 c -6.84,-9.976 -20.77,-18.918 -38.9,-18.918 -25.77,0 -38.94,18.141 -38.94,36.551 0,30.75 27.36,47.578 76.53,47.321 l 0,2.628 c 0,10.508 -2.89,29.7 -28.93,29.442 -12.09,0 -24.44,-3.422 -33.39,-9.461 l -5.26,15.508 c 10.54,6.57 26.04,11.043 42.08,11.043 39.18,0 48.63,-26.551 48.63,-52.063 l 0,-47.59" /><path
             id="path50"
             style="fill:#ffffff;fill-opacity:1;fill-rule:nonzero;stroke:none"
             d="m 3323.03,319.922 c 0,14.988 -0.24,27.879 -1.03,39.699 l 20.24,0 1.05,-24.98 0.78,0 c 5.8,17.097 19.98,27.871 35.51,27.871 2.35,0 4.19,-0.262 6.29,-0.793 l 0,-21.559 c -2.62,0.27 -4.99,0.531 -8.13,0.531 -16.31,0 -27.87,-12.351 -31.04,-29.453 -0.51,-3.41 -0.78,-7.097 -0.78,-11.039 l 0,-67.828 -23.13,0 0.24,87.551" /><path
             id="path52"
             style="fill:#ffffff;fill-opacity:1;fill-rule:nonzero;stroke:none"
             d="m 3563.62,308.621 c 0.25,14.449 -6.06,37.59 -31.82,37.59 -23.67,0 -33.65,-21.563 -35.5,-37.59 l 67.32,0 z m -67.58,-16.57 c 0.53,-31.289 20.25,-44.18 43.38,-44.18 16.57,0 26.83,2.91 35.23,6.328 l 4.21,-16.308 c -8.15,-3.68 -22.35,-8.141 -42.59,-8.141 -38.9,0 -62.57,26.012 -62.57,64.148 0,38.641 22.87,68.883 59.94,68.883 41.54,0 52.31,-36.562 52.31,-59.953 0,-4.738 -0.24,-8.406 -0.77,-11.047 l -89.14,0.27" /><path
             id="path54"
             style="fill:#ffffff;fill-opacity:1;fill-rule:nonzero;stroke:none"
             d="m 3828.37,319.922 c 0,14.988 -0.25,27.879 -1.05,39.699 l 20.25,0 1.06,-24.98 0.77,0 c 5.79,17.097 19.98,27.871 35.5,27.871 2.36,0 4.21,-0.262 6.31,-0.793 l 0,-21.559 c -2.63,0.27 -5,0.531 -8.15,0.531 -16.31,0 -27.87,-12.351 -31.01,-29.453 -0.54,-3.41 -0.8,-7.097 -0.8,-11.039 l 0,-67.828 -23.13,0 0.25,87.551" /><path
             id="path56"
             style="fill:#ffffff;fill-opacity:1;fill-rule:nonzero;stroke:none"
             d="m 4068.94,308.621 c 0.25,14.449 -6.05,37.59 -31.81,37.59 -23.67,0 -33.67,-21.563 -35.5,-37.59 l 67.31,0 z m -67.57,-16.57 c 0.53,-31.289 20.25,-44.18 43.38,-44.18 16.55,0 26.82,2.91 35.24,6.328 l 4.19,-16.308 c -8.14,-3.68 -22.35,-8.141 -42.59,-8.141 -38.91,0 -62.58,26.012 -62.58,64.148 0,38.641 22.89,68.883 59.95,68.883 41.55,0 52.32,-36.562 52.32,-59.953 0,-4.738 -0.26,-8.406 -0.79,-11.047 l -89.12,0.27" /><path
             id="path58"
             style="fill:#ffffff;fill-opacity:1;fill-rule:nonzero;stroke:none"
             d="m 4265.85,297.309 c -25.23,0.519 -53.88,-3.95 -53.88,-28.649 0,-15.262 9.99,-22.082 21.55,-22.082 16.83,0 27.62,10.512 31.29,21.274 0.79,2.386 1.04,5 1.04,7.367 l 0,22.09 z m 22.63,-34.45 c 0,-11.039 0.52,-21.82 1.83,-30.488 l -20.76,0 -2.11,16.027 -0.78,0 c -6.84,-9.976 -20.79,-18.918 -38.92,-18.918 -25.76,0 -38.92,18.141 -38.92,36.551 0,30.75 27.35,47.578 76.51,47.321 l 0,2.628 c 0,10.508 -2.89,29.7 -28.92,29.442 -12.09,0 -24.44,-3.422 -33.39,-9.461 l -5.25,15.508 c 10.52,6.57 26.02,11.043 42.06,11.043 39.18,0 48.65,-26.551 48.65,-52.063 l 0,-47.59" /><path
             id="path60"
             style="fill:#ffffff;fill-opacity:1;fill-rule:nonzero;stroke:none"
             d="m 4491.19,307.828 c 0,3.152 -0.28,6.832 -1.06,9.992 -3.42,14.469 -16.04,26.559 -33.39,26.559 -23.92,0 -38.13,-21.039 -38.13,-48.91 0,-26.028 12.89,-47.321 37.6,-47.321 15.52,0 29.71,10.512 33.92,27.59 0.78,3.16 1.06,6.321 1.06,10 l 0,22.09 z m 23.13,111.223 0,-153.813 c 0,-11.308 0.26,-24.199 1.05,-32.867 l -20.77,0 -1.06,22.09 -0.53,0 c -7.09,-14.199 -22.33,-24.981 -43.1,-24.981 -30.77,0 -54.7,26.02 -54.7,64.668 -0.24,42.614 26.31,68.364 57.07,68.364 19.71,0 32.86,-9.211 38.38,-19.192 l 0.53,0 0,75.731 23.13,0" /><path
             id="path62"
             style="fill:#ffffff;fill-opacity:1;fill-rule:nonzero;stroke:none"
             d="m 4639.99,359.621 27.61,-75.18 c 3.15,-8.421 6.31,-18.41 8.42,-26.043 l 0.53,0 c 2.36,7.633 4.98,17.34 8.14,26.563 l 25.24,74.66 24.45,0 -34.71,-90.711 c -16.56,-43.629 -27.87,-65.988 -43.64,-79.922 -11.57,-9.726 -22.61,-13.668 -28.39,-14.726 l -5.79,19.449 c 5.79,1.598 13.41,5.277 20.25,11.309 6.3,5 13.93,13.949 19.46,25.769 1.04,2.383 1.82,3.949 1.82,5.52 0,1.32 -0.52,3.152 -1.82,5.793 l -46.81,117.519 25.24,0" /></g></g></g></g></svg>